<svg width="1200" height="47" viewBox="0 0 1200 47" fill="none" xmlns="http://www.w3.org/2000/svg">
<g clip-path="url(#clip0_436_53)">
<path d="M39 17.719C47.7738 17.719 58.1752 20.4622 66.7117 17.9329C76.0647 15.1617 87.7347 20.7001 97.2053 22.7477C103.53 24.1151 112.306 22.7176 118.925 22.5337C126.029 22.3364 133.821 21.0046 140.859 19.8588C146.856 18.8826 154.189 23.4967 160.546 23.4967C166.734 23.4967 172.495 21.3429 178.629 20.6613C191.021 19.2844 202.66 22.3928 214.739 23.4432C232.491 24.9868 248.91 17.719 266.258 17.719C280.344 17.719 295.18 13.9822 309.163 15.8465C316.338 16.8033 323.788 19.4246 331.15 17.184C337.542 15.2385 346.371 12.8201 352.924 15.579C367.879 21.8762 382.48 14.2511 397.434 16.97C412.552 19.7188 429.913 19.1704 444.94 16.007C457.214 13.423 469.632 14.4667 481.96 11.7272C497.011 8.38257 511.854 17.602 526.737 18.6284C533.954 19.1261 541.232 19.6448 548.457 19.6448C555.897 19.6448 562.85 22.5337 570.124 22.5337C578.851 22.5337 587.471 20.6078 596.07 20.6078C602.266 20.6078 609.117 22.8786 615.276 21.9988C621.457 21.1157 627.66 21.4754 634.107 20.5543C639.922 19.7236 645.412 18.6819 651.387 18.6819C665.12 18.6819 678.664 22.7115 692.312 20.3938C699.969 19.0936 707.745 17.719 715.53 17.719C720.567 17.719 725.403 20.9755 730.617 19.4309C742.403 15.9387 753.232 20.6078 765.069 20.6078C787.09 20.6078 808.51 18.6819 830.55 18.6819C837.479 18.6819 844.448 19.6448 851.2 19.6448C857.717 19.6448 863.949 16.756 870.513 16.756C875.31 16.756 880.107 16.756 884.904 16.756C889.787 16.756 893.45 12.9042 898.385 12.9042C910.572 12.9042 922.358 15.793 934.549 15.793C944.798 15.793 955.159 16.756 965.578 16.756C976.561 16.756 987.22 18.6819 998.318 18.6819C1009.51 18.6819 1020.75 19.6448 1031.81 19.6448C1037.94 19.6448 1043.86 18.9498 1049.89 18.6819C1053.92 18.5029 1057.94 17.3657 1061.87 16.542C1065.51 15.7799 1069.49 16.515 1073 15.579C1078.08 14.2259 1082.79 17.5374 1087.87 17.719C1092.94 17.8999 1098.05 17.719 1103.12 17.719C1115.81 17.719 1128.57 17.9013 1141.16 16.7025C1154.73 15.4095 1168.07 16.756 1181.49 16.756C1197.06 16.756 1216.78 22.8274 1232.1 17.719" stroke="black" stroke-width="23" stroke-linecap="round"/>
</g>
<defs>
<clipPath id="clip0_436_53">
<rect width="1200" height="47" fill="white"/>
</clipPath>
</defs>
</svg>
