<svg width="1200" height="47" viewBox="0 0 1200 47" fill="none" xmlns="http://www.w3.org/2000/svg">
<g clip-path="url(#clip0_436_53)">
<path d="M13 17.9003C21.6406 17.9003 31.8843 20.7176 40.2913 18.1201C49.5023 15.2741 60.9953 20.9619 70.3222 23.0648C76.5505 24.4691 85.1939 23.0339 91.7127 22.845C98.7089 22.6424 106.383 21.2746 113.314 20.0979C119.219 19.0954 126.441 23.834 132.702 23.834C138.796 23.834 144.469 21.622 150.51 20.9221C162.714 19.508 174.177 22.7003 186.073 23.779C203.555 25.3643 219.725 17.9003 236.81 17.9003C250.682 17.9003 265.293 14.0627 279.064 15.9773C286.13 16.9599 293.467 19.652 300.717 17.3509C307.013 15.3529 315.708 12.8692 322.161 15.7026C336.889 22.1697 351.269 14.3388 365.995 17.1311C380.884 19.9542 397.982 19.3909 412.78 16.1422C424.869 13.4884 437.098 14.5603 449.239 11.7468C464.061 8.31193 478.679 17.7802 493.337 18.8343C500.444 19.3454 507.612 19.8782 514.727 19.8782C522.054 19.8782 528.901 22.845 536.065 22.845C544.66 22.845 553.149 20.8671 561.618 20.8671C567.72 20.8671 574.466 23.1993 580.532 22.2956C586.619 21.3887 592.728 21.7581 599.077 20.8122C604.804 19.959 610.211 18.8892 616.095 18.8892C629.62 18.8892 642.959 23.0275 656.4 20.6474C663.94 19.3121 671.598 17.9003 679.265 17.9003C684.226 17.9003 688.989 21.2447 694.123 19.6584C705.73 16.072 716.395 20.8671 728.052 20.8671C749.74 20.8671 770.835 18.8892 792.54 18.8892C799.364 18.8892 806.227 19.8782 812.877 19.8782C819.295 19.8782 825.432 16.9113 831.896 16.9113C836.62 16.9113 841.345 16.9113 846.069 16.9113C850.879 16.9113 854.485 12.9556 859.346 12.9556C871.348 12.9556 882.955 15.9224 894.961 15.9224C905.054 15.9224 915.258 16.9113 925.519 16.9113C936.336 16.9113 946.833 18.8892 957.763 18.8892C968.788 18.8892 979.851 19.8782 990.744 19.8782C996.785 19.8782 1002.62 19.1643 1008.55 18.8892C1012.52 18.7054 1016.48 17.5375 1020.35 16.6916C1023.94 15.9089 1027.86 16.6638 1031.31 15.7026C1036.31 14.313 1040.95 17.7139 1045.96 17.9003C1050.95 18.0862 1055.98 17.9003 1060.97 17.9003C1073.48 17.9003 1086.04 18.0876 1098.43 16.8564C1111.8 15.5285 1124.94 16.9113 1138.16 16.9113C1153.49 16.9113 1172.91 23.1466 1188 17.9003" stroke="black" stroke-width="23" stroke-linecap="round"/>
</g>
<defs>
<clipPath id="clip0_436_53">
<rect width="1200" height="47" fill="white"/>
</clipPath>
</defs>
</svg>
